<svg xmlns="http://www.w3.org/2000/svg" xmlns:xlink="http://www.w3.org/1999/xlink" version="1.1" width="45.7pt" height="28.137932pt" viewBox="0 0 45.7 28.137932">
<rect x="0" y="0" width="45.70" height="28.14" fill="#ffffff"/>
<defs>
<clipPath id="clip_1">
<path transform="matrix(1,0,0,-1,-445.29988,483.90785)" d="M445.3 455.77006H491V483.90797H445.3Z"/>
</clipPath>
<clipPath id="clip_2">
<path transform="matrix(1,0,0,-1,-445.29988,483.90785)" d="M0 0H554.173V715.039H0Z"/>
</clipPath>
<clipPath id="clip_3">
<path transform="matrix(.88097,0,0,-.88097,-231.88887,28.061829)" d="M0 0H312.825V41.5332H0Z"/>
</clipPath>
<path id="font_4_4" d="M.45999146 0V.07299805H.16899109V.07499695L.21998596 .1230011C.35699464 .2550354 .44400025 .35206605 .44400025 .47209168 .44400025 .5651245 .3849945 .6611328 .24499512 .6611328 .17098999 .6611328 .10598755 .63212588 .06199646 .5951233L.08999634 .5331116C.11999512 .5581207 .16899109 .5881195 .22799683 .5881195 .32499696 .5881195 .35598756 .52711489 .35598756 .4610901 .35598756 .36306764 .27999879 .27905274 .11399841 .1210022L.04499817 .053985597V0H.45999146Z"/>
<path id="font_4_5" d="M.041992189 .0332489C.07398987 .012252808 .13798523-.0107421879 .21099854-.0107421879 .3659973-.0107421879 .44799806 .08026123 .44799806 .18432617 .44699098 .27537538 .3829956 .33540345 .30299378 .35040284V.35240174C.38198854 .38139344 .4229889 .43832398 .4229889 .50624087 .4229889 .5851288 .36499024 .6611328 .23699951 .6611328 .16699219 .6611328 .100997928 .63612368 .06599426 .61112979L.08999634 .5471802C.117996219 .56715396 .16799927 .5901184 .21998596 .5901184 .30099488 .5901184 .33399964 .54418948 .33399964 .49224855 .33399964 .4153595 .25299073 .3824005 .18899536 .3824005H.13999939V.31640626H.18899536C.27398683 .31640626 .35598756 .27737428 .35699464 .18632508 .35798646 .13128662 .32199098 .060256959 .20999146 .060256959 .147995 .060256959 .09098816 .08526611 .06599426 .10028076L.041992189 .0332489Z"/>
<path id="font_4_8" d="M.41600038 .66015627C.3999939 .66015627 .37799073 .65914919 .35198976 .65515139 .269989 .6451416 .19799805 .6121521 .14399719 .5591736 .07899475 .49523927 .033996583 .39430238 .033996583 .26628114 .033996583 .09725952 .125-.0107421879 .2630005-.0107421879 .39898683-.0107421879 .47999574 .09925842 .47999574 .2192688 .47999574 .34529115 .39898683 .42929078 .28399659 .42929078 .21199036 .42929078 .15699768 .3952942 .12599182 .353302H.12399292C.13899231 .4612732 .21099854 .5611725 .34999085 .58314517 .375 .58714297 .397995 .58914187 .41600038 .58815V.66015627M.2649994 .057250978C.17199707 .057250978 .12199402 .13726807 .12098694 .24427796 .12098694 .26028443 .125 .27227784 .12998963 .2822876 .1539917 .33029176 .20399475 .3623047 .25698854 .3623047 .33799745 .3623047 .3909912 .30628968 .3909912 .2132721 .3909912 .12025452 .33999635 .057250978 .2649994 .057250978Z"/>
<path id="font_4_6" d="M.3999939 0V.17808533H.4909973V.24609375H.3999939V.6503906H.30499269L.01499939 .23509217V.17808533H.31698609V0H.3999939M.10398865 .24609375V.24809265L.2630005 .46929933C.2809906 .49931336 .29699708 .52734377 .31698609 .5653839H.31999208C.31799317 .5313568 .31698609 .49731446 .31698609 .46328736V.24609375H.10398865Z"/>
<path id="font_4_2" d="M.2630005 .6611328C.1309967 .6611328 .035995485 .5421295 .035995485 .32318116 .037994386 .10824585 .125-.0107421879 .2519989-.0107421879 .394989-.0107421879 .47799684 .11123657 .47799684 .33218385 .47799684 .5391388 .39898683 .6611328 .2630005 .6611328M.25698854 .5931244C.34899903 .5931244 .3889923 .48814393 .3889923 .32818605 .3889923 .16223145 .34599305 .057250978 .25698854 .057250978 .1769867 .057250978 .125 .15322876 .125 .32218934 .125 .4991455 .18099976 .5931244 .25698854 .5931244Z"/>
<path id="font_4_9" d="M.1659851 .33918763C.085998538 .30519105 .036987306 .24620056 .036987306 .16423035 .036987306 .069244388 .11898804-.0107421879 .25498963-.0107421879 .3789978-.0107421879 .47599793 .06425476 .47599793 .17822266 .47599793 .25619508 .42599488 .31419374 .34498597 .34617616V.34918214C.4249878 .38616944 .45298768 .44615174 .45298768 .5011444 .45298768 .5831299 .3889923 .6611328 .2630005 .6611328 .147995 .6611328 .06098938 .5911255 .06098938 .48814393 .06098938 .43215943 .09199524 .37617494 .16499329 .34217835L.1659851 .33918763M.25698854 .053253175C.17399597 .053253175 .12399292 .11123657 .1269989 .17622376 .1269989 .23820496 .16799927 .28919984 .24398804 .31118775 .33198548 .28619386 .3869934 .24720764 .3869934 .16921997 .3869934 .10223389 .33599855 .053253175 .25698854 .053253175M.2579956 .5981293C.33699037 .5981293 .36799623 .5441284 .36799623 .49214173 .36799623 .4331665 .32499696 .39317323 .2689972 .37417604 .19400025 .39416505 .14399719 .4291687 .14498902 .49414063 .14498902 .5501404 .18499756 .5981293 .2579956 .5981293Z"/>
<path id="font_4_7" d="M.43299867 .6503906H.12199402L.07998657 .33810426C.10398865 .34111024 .1329956 .34410096 .17098999 .34410096 .2999878 .34410096 .35699464 .285141 .35699464 .20117188 .35798646 .114227298 .28599549 .060256959 .20399475 .060256959 .14399719 .060256959 .09098816 .08024597 .06399536 .09623718L.041992189 .029251099C.07398987 .009246826 .1329956-.0107421879 .20399475-.0107421879 .34498597-.0107421879 .44599916 .084243778 .44599916 .21116638 .44599916 .29212953 .4039917 .34910584 .35299684 .3771057 .31298829 .4020996 .2639923 .41210938 .21299744 .41210938 .18899536 .41210938 .1749878 .4111023 .1599884 .4091034L.18499756 .5763855H.43299867V.6503906Z"/>
<clipPath id="clip_5">
<path transform="matrix(.88097,0,0,-.88097,-231.88887,28.061829)" d="M0 41.533H312.825V0H0Z"/>
</clipPath>
<path id="font_4_3" d="M.23599243 0H.32099916V.6503906H.24598694L.10398865 .5743866 .12098694 .5073395 .23399353 .5683899H.23599243V0Z"/>
</defs>
<g clip-path="url(#clip_1)">
<g clip-path="url(#clip_2)">
<g clip-path="url(#clip_3)">
<g id="layer_1" data-name="Layer 1">
<path transform="matrix(.88097,0,0,-.88097,30.610062,16.609219)" stroke-width="1" stroke-linecap="round" stroke-miterlimit="10" stroke-linejoin="miter" fill="none" stroke="#000000" d="M0 0V5"/>
<path transform="matrix(.88097,0,0,-.88097,26.116593,16.609219)" stroke-width="1" stroke-linecap="round" stroke-miterlimit="10" stroke-linejoin="miter" fill="none" stroke="#000000" d="M0 0V5"/>
<path transform="matrix(.88097,0,0,-.88097,21.007142,16.609219)" stroke-width="1" stroke-linecap="round" stroke-miterlimit="10" stroke-linejoin="miter" fill="none" stroke="#000000" d="M0 0V5"/>
<path transform="matrix(.88097,0,0,-.88097,15.104462,16.609219)" stroke-width="1" stroke-linecap="round" stroke-miterlimit="10" stroke-linejoin="miter" fill="none" stroke="#000000" d="M0 0V5"/>
<path transform="matrix(.88097,0,0,-.88097,8.145309,16.609219)" stroke-width="1" stroke-linecap="round" stroke-miterlimit="10" stroke-linejoin="miter" fill="none" stroke="#ff330d" d="M0 0V5"/>
<path transform="matrix(.88097,0,0,-.88097,-.40026856,16.609219)" stroke-width="1" stroke-linecap="round" stroke-miterlimit="10" stroke-linejoin="miter" fill="none" stroke="#000000" d="M0 0V5"/>
<path transform="matrix(.88097,0,0,-.88097,34.662157,16.609219)" stroke-width="1" stroke-linecap="round" stroke-miterlimit="10" stroke-linejoin="miter" fill="none" stroke="#000000" d="M0 0V8"/>
<use data-text="2" xlink:href="#font_4_4" transform="matrix(7.92873,0,0,-7.92873,-205.14536,7.579277)" fill="#ff330d"/>
<use data-text="3" xlink:href="#font_4_5" transform="matrix(7.92873,0,0,-7.92873,-189.63675,7.579277)" fill="#ff330d"/>
<use data-text="6" xlink:href="#font_4_8" transform="matrix(7.92873,0,0,-7.92873,-163.12308,7.579277)" fill="#ff330d"/>
<use data-text="4" xlink:href="#font_4_6" transform="matrix(7.92873,0,0,-7.92873,-92.56531,7.579277)" fill="#ff330d"/>
<use data-text="0" xlink:href="#font_4_2" transform="matrix(7.92873,0,0,-7.92873,-88.49786,7.579277)" fill="#ff330d"/>
<use data-text="8" xlink:href="#font_4_9" transform="matrix(7.92873,0,0,-7.92873,-66.05165,7.579277)" fill="#ff330d"/>
<use data-text="0" xlink:href="#font_4_2" transform="matrix(7.92873,0,0,-7.92873,-61.984209,7.579277)" fill="#ff330d"/>
<use data-text="5" xlink:href="#font_4_7" transform="matrix(7.92873,0,0,-7.92873,2.0402833,7.579277)" fill="#ff330d"/>
<use data-text="0" xlink:href="#font_4_2" transform="matrix(7.92873,0,0,-7.92873,6.107727,7.579277)" fill="#ff330d"/>
<use data-text="0" xlink:href="#font_4_2" transform="matrix(7.92873,0,0,-7.92873,10.175171,7.579277)" fill="#ff330d"/>
<g clip-path="url(#clip_5)">
<use data-text="1" xlink:href="#font_4_3" transform="matrix(8.8097,0,0,-8.8097,-146.05149,25.859404)"/>
<use data-text="0" xlink:href="#font_4_2" transform="matrix(8.8097,0,0,-8.8097,-141.5321,25.859404)"/>
<use data-text="1" xlink:href="#font_4_3" transform="matrix(8.8097,0,0,-8.8097,-60.209764,25.859404)"/>
<use data-text="0" xlink:href="#font_4_2" transform="matrix(8.8097,0,0,-8.8097,-55.690385,25.859404)"/>
<use data-text="0" xlink:href="#font_4_2" transform="matrix(8.8097,0,0,-8.8097,-51.171007,25.859404)"/>
<use data-text="1" xlink:href="#font_4_3" transform="matrix(8.8097,0,0,-8.8097,25.623154,25.859404)"/>
<use data-text="0" xlink:href="#font_4_2" transform="matrix(8.8097,0,0,-8.8097,30.142533,25.859404)"/>
<use data-text="0" xlink:href="#font_4_2" transform="matrix(8.8097,0,0,-8.8097,34.66191,25.859404)"/>
<use data-text="0" xlink:href="#font_4_2" transform="matrix(8.8097,0,0,-8.8097,39.18129,25.859404)"/>
</g>
<path transform="matrix(.88097,0,0,-.88097,-229.62883,16.609219)" stroke-width="1" stroke-linecap="round" stroke-miterlimit="10" stroke-linejoin="miter" fill="none" stroke="#000000" d="M0 0H300"/>
<path transform="matrix(.88097,0,0,-.88097,8.145309,-1.8911514)" stroke-width="1" stroke-linecap="round" stroke-miterlimit="10" stroke-linejoin="miter" fill="none" stroke="#0dcc00" d="M0 0V6"/>
<path transform="matrix(.88097,0,0,-.88097,8.145309,-4.5340616)" stroke-width="1" stroke-linecap="round" stroke-miterlimit="10" stroke-linejoin="miter" fill="none" stroke="#0dcc00" d="M0 0H30.1"/>
<path transform="matrix(.88097,0,0,-.88097,34.662157,-7.1769716)" stroke-width="1" stroke-linecap="round" stroke-miterlimit="10" stroke-linejoin="miter" fill="none" stroke="#0dcc00" d="M0 0V-6"/>
</g>
</g>
</g>
</g>
</svg>
