<svg xmlns="http://www.w3.org/2000/svg" xmlns:xlink="http://www.w3.org/1999/xlink" version="1.1" width="183.3pt" height="51.2pt" viewBox="0 0 183.3 51.2">
<rect x="0" y="0" width="183.30" height="51.20" fill="#ffffff"/>
<defs>
<clipPath id="clip_1">
<path transform="matrix(1,0,0,-1,-123.79996,409.0389)" d="M123.8 357.839H307.1V409.039H123.8Z"/>
</clipPath>
<clipPath id="clip_2">
<path transform="matrix(1,0,0,-1,-123.79996,409.0389)" d="M0 0H554.173V715.039H0Z"/>
</clipPath>
<clipPath id="clip_3">
<path transform="matrix(.94395,0,0,-.94395,1.4860458,49.63791)" d="M0 0H191V51H0Z"/>
</clipPath>
<clipPath id="clip_4">
<path transform="matrix(.94395,0,0,-.94395,1.4860458,49.63791)" d="M0 51H191V0H0Z"/>
</clipPath>
<clipPath id="clip_5">
<path transform="matrix(.94395,0,0,-.94395,1.4860458,49.63791)" d="M.5 .5H50.5V50.5H.5Z"/>
</clipPath>
<path id="font_6_1" d="M.2659912 .53186038V.296875H.039993287V.23686219H.2659912V0H.32998658V.23686219H.55599978V.296875H.32998658V.53186038H.2659912Z"/>
<path id="font_6_2" d="M.55599978 .33691407V.39691163H.039993287V.33691407H.55599978M.55599978 .14115906V.20117188H.039993287V.14115906H.55599978Z"/>
</defs>
<g>
<g clip-path="url(#clip_1)">
<g clip-path="url(#clip_2)">
<g clip-path="url(#clip_3)">
<g id="layer_1" data-name="Layer 1">
<g clip-path="url(#clip_4)">
<g>
<g clip-path="url(#clip_5)">
<path transform="matrix(.94395,0,0,-.94395,49.15552,25.567185)" d="M0 0H-25-50C-50 13.81-38.81 25-25 25-11.19 25 0 13.81 0 0" fill="#ffffff"/>
<path transform="matrix(.94395,0,0,-.94395,49.15552,25.567185)" d="M0 0C0-13.81-11.19-25-25-25-38.81-25-50-13.81-50 0H-25Z" fill="#ffff00"/>
</g>
</g>
<path transform="matrix(.94395,0,0,-.94395,49.15552,25.567185)" stroke-width="1" stroke-linecap="butt" stroke-miterlimit="10" stroke-linejoin="miter" fill="none" stroke="#000000" d="M0 0C0-13.81-11.19-25-25-25-38.81-25-50-13.81-50 0-50 13.81-38.81 25-25 25-11.19 25 0 13.81 0 0Z"/>
<path transform="matrix(.94395,0,0,-.94395,25.55677,25.567185)" stroke-width="1" stroke-linecap="round" stroke-miterlimit="10" stroke-linejoin="miter" fill="none" stroke="#000000" d="M0 0H-25"/>
<path transform="matrix(.94395,0,0,-.94395,25.55677,25.567185)" stroke-width="1" stroke-linecap="round" stroke-miterlimit="10" stroke-linejoin="miter" fill="none" stroke="#000000" d="M0 0H25"/>
<path transform="matrix(.94395,0,0,-.94395,91.63327,49.165937)" d="M0 0C13.81 0 25 11.19 25 25 25 34.26 19.97 42.34 12.5 46.65L0 25H-25C-25 11.19-13.81 0 0 0" fill="#ffffff"/>
<path transform="matrix(.94395,0,0,-.94395,91.63327,25.567185)" d="M0 0 12.5 21.65C8.82 23.78 4.55 25 0 25-13.81 25-25 13.81-25 0Z" fill="#40ff40"/>
<path transform="matrix(.94395,0,0,-.94395,68.03452,25.567185)" stroke-width="1" stroke-linecap="butt" stroke-miterlimit="10" stroke-linejoin="miter" fill="none" stroke="#000000" d="M0 0C0-13.81 11.19-25 25-25 38.81-25 50-13.81 50 0 50 9.26 44.97 17.34 37.5 21.65 33.82 23.78 29.55 25 25 25 11.19 25 0 13.81 0 0Z"/>
<path transform="matrix(.94395,0,0,-.94395,91.63327,25.567185)" stroke-width="1" stroke-linecap="round" stroke-miterlimit="10" stroke-linejoin="miter" fill="none" stroke="#000000" d="M0 0H-25"/>
<path transform="matrix(.94395,0,0,-.94395,91.63327,25.567185)" stroke-width="1" stroke-linecap="round" stroke-miterlimit="10" stroke-linejoin="miter" fill="none" stroke="#000000" d="M0 0 12.5 21.65"/>
<path transform="matrix(.94395,0,0,-.94395,181.30854,25.567185)" d="M0 0H-25L-12.5 21.65C-5.03 17.34 0 9.26 0 0" fill="#ffffff"/>
<path transform="matrix(.94395,0,0,-.94395,157.70978,25.567185)" d="M0 0H25C25-9.26 19.97-17.34 12.5-21.65Z" fill="#ffff00"/>
<path transform="matrix(.94395,0,0,-.94395,157.70978,25.567185)" d="M0 0 12.5-21.65C8.82-23.78 4.55-25 0-25-4.55-25-8.82-23.78-12.5-21.65Z" fill="#ffff00"/>
<path transform="matrix(.94395,0,0,-.94395,169.50916,5.130764)" d="M0 0-12.5-21.65-25 0C-21.32 2.13-17.05 3.35-12.5 3.35-7.95 3.35-3.68 2.13 0 0" fill="#40ff40"/>
<path transform="matrix(.94395,0,0,-.94395,145.9104,5.130764)" d="M0 0 12.5-21.65H-12.5C-12.5-12.39-7.47-4.31 0 0" fill="#40ff40"/>
<path transform="matrix(.94395,0,0,-.94395,157.70978,25.567185)" d="M0 0-12.5-21.65C-19.97-17.34-25-9.26-25 0Z" fill="#ffff00"/>
<path transform="matrix(.94395,0,0,-.94395,181.30854,25.567185)" stroke-width="1" stroke-linecap="butt" stroke-miterlimit="10" stroke-linejoin="miter" fill="none" stroke="#000000" d="M0 0C0-9.26-5.03-17.34-12.5-21.65-16.18-23.78-20.45-25-25-25-29.55-25-33.82-23.78-37.5-21.65-44.97-17.34-50-9.26-50 0-50 9.26-44.97 17.34-37.5 21.65-33.82 23.78-29.55 25-25 25-20.45 25-16.18 23.78-12.5 21.65-5.03 17.34 0 9.26 0 0Z"/>
<path transform="matrix(.94395,0,0,-.94395,157.70978,25.567185)" stroke-width="1" stroke-linecap="round" stroke-miterlimit="10" stroke-linejoin="miter" fill="none" stroke="#000000" d="M0 0H-25"/>
<path transform="matrix(.94395,0,0,-.94395,157.70978,25.567185)" stroke-width="1" stroke-linecap="round" stroke-dasharray="2" stroke-miterlimit="10" stroke-linejoin="miter" fill="none" stroke="#000000" d="M0 0-12.5-21.65"/>
<path transform="matrix(.94395,0,0,-.94395,157.70978,25.567185)" stroke-width="1" stroke-linecap="round" stroke-dasharray="2" stroke-miterlimit="10" stroke-linejoin="miter" fill="none" stroke="#000000" d="M0 0 12.5 21.65"/>
<path transform="matrix(.94395,0,0,-.94395,157.70978,25.567185)" stroke-width="1" stroke-linecap="round" stroke-dasharray="2" stroke-miterlimit="10" stroke-linejoin="miter" fill="none" stroke="#000000" d="M0 0-12.5 21.65"/>
<path transform="matrix(.94395,0,0,-.94395,157.70978,25.567185)" stroke-width="1" stroke-linecap="round" stroke-miterlimit="10" stroke-linejoin="miter" fill="none" stroke="#000000" d="M0 0H25"/>
<path transform="matrix(.94395,0,0,-.94395,157.70978,25.567185)" stroke-width="1" stroke-linecap="round" stroke-miterlimit="10" stroke-linejoin="miter" fill="none" stroke="#000000" d="M0 0 12.5-21.65"/>
</g>
<use data-text="+" xlink:href="#font_6_1" transform="matrix(11.3274,0,0,-11.3274,55.219739,28.891776)"/>
<use data-text="=" xlink:href="#font_6_2" transform="matrix(11.3274,0,0,-11.3274,121.292469,28.891776)"/>
</g>
</g>
</g>
</g>
</g>
</svg>
