<svg xmlns="http://www.w3.org/2000/svg" xmlns:xlink="http://www.w3.org/1999/xlink" version="1.1" width="117pt" height="39.736585pt" viewBox="0 0 117 39.736585">
<rect x="0" y="0" width="117.00" height="39.74" fill="#ffffff"/>
<defs>
<clipPath id="clip_1">
<path transform="matrix(1,0,0,-1,-396.3,657.96829)" d="M396.3 618.2317H513.3V657.96829H396.3Z"/>
</clipPath>
<clipPath id="clip_2">
<path transform="matrix(1,0,0,-1,-396.3,657.96829)" d="M0 0H554.173V715.039H0Z"/>
</clipPath>
<clipPath id="clip_3">
<path transform="matrix(1.27463,0,0,-1.27463,1.9680176,38.68628)" d="M0 0H88.9565V34.54H0Z"/>
</clipPath>
<clipPath id="clip_4">
<path transform="matrix(1.27463,0,0,-1.27463,1.9680176,38.68628)" d="M0 34.54H88.957V0H0Z"/>
</clipPath>
<path id="font_5_1" d="M.2659912 .53186038V.296875H.039993287V.23686219H.2659912V0H.32998658V.23686219H.55599978V.296875H.32998658V.53186038H.2659912Z"/>
<path id="font_5_2" d="M.45999146 0V.07299805H.16899109V.07499695L.21998596 .1230011C.35699464 .2550354 .44400025 .35206605 .44400025 .47209168 .44400025 .5651245 .3849945 .6611328 .24499512 .6611328 .17098999 .6611328 .10598755 .63212588 .06199646 .5951233L.08999634 .5331116C.11999512 .5581207 .16899109 .5881195 .22799683 .5881195 .32499696 .5881195 .35598756 .52711489 .35598756 .4610901 .35598756 .36306764 .27999879 .27905274 .11399841 .1210022L.04499817 .053985597V0H.45999146Z"/>
<path id="font_5_4" d="M.07499695 .6738281V0H.16299439V.31559754H.4889984V0H.57699587V.6738281H.4889984V.39160157H.16299439V.6738281H.07499695Z"/>
<path id="font_5_3" d="M.3999939 0V.17808533H.4909973V.24609375H.3999939V.6503906H.30499269L.01499939 .23509217V.17808533H.31698609V0H.3999939M.10398865 .24609375V.24809265L.2630005 .46929933C.2809906 .49931336 .29699708 .52734377 .31698609 .5653839H.31999208C.31799317 .5313568 .31698609 .49731446 .31698609 .46328736V.24609375H.10398865Z"/>
<path id="font_5_5" d="M.46199037 .22605896C.46398927 .23605347 .46499635 .24905396 .46499635 .26705934 .46499635 .35609437 .42399598 .49414063 .2649994 .49414063 .12399292 .49414063 .037994386 .3801117 .037994386 .23405457 .037994386 .08821106 .1269989-.0107421879 .27598573-.0107421879 .35299684-.0107421879 .40699769 .0062561037 .43798829 .020248414L.42199708 .083221439C.3899994 .069244388 .35099793 .058242799 .28799439 .058242799 .19898987 .058242799 .12399292 .10719299 .12199402 .22605896H.46199037M.12298584 .2890625C.12998963 .3500824 .16799927 .43113709 .2579956 .43113709 .35699464 .43113709 .3809967 .3440857 .37998963 .2890625H.12298584Z"/>
</defs>
<g clip-path="url(#clip_1)">
<g clip-path="url(#clip_2)">
<g clip-path="url(#clip_3)">
<g id="layer_1" data-name="Layer 1">
<g clip-path="url(#clip_4)">
<path transform="matrix(1.27463,0,0,-1.27463,51.30448,22.11609)" d="M0 0C0-2.209-1.791-4-4-4-6.209-4-8-2.209-8 0-8 2.209-6.209 4-4 4-1.791 4 0 2.209 0 0" fill="#f5ebff"/>
<path transform="matrix(1.27463,0,0,-1.27463,51.30448,22.11609)" stroke-width=".5" stroke-linecap="butt" stroke-miterlimit="10" stroke-linejoin="miter" fill="none" stroke="#000000" d="M0 0C0-2.209-1.791-4-4-4-6.209-4-8-2.209-8 0-8 2.209-6.209 4-4 4-1.791 4 0 2.209 0 0Z"/>
<path transform="matrix(1.27463,0,0,-1.27463,15.614843,22.11609)" d="M0 0C0-2.209-1.791-4-4-4-6.209-4-8-2.209-8 0-8 2.209-6.209 4-4 4-1.791 4 0 2.209 0 0" fill="#ff0000"/>
<path transform="matrix(1.27463,0,0,-1.27463,15.614843,22.11609)" stroke-width=".5" stroke-linecap="butt" stroke-miterlimit="10" stroke-linejoin="miter" fill="none" stroke="#000000" d="M0 0C0-2.209-1.791-4-4-4-6.209-4-8-2.209-8 0-8 2.209-6.209 4-4 4-1.791 4 0 2.209 0 0Z"/>
<path transform="matrix(1.27463,0,0,-1.27463,51.30448,32.31313)" d="M0 0C0-2.209-1.791-4-4-4-6.209-4-8-2.209-8 0-8 2.209-6.209 4-4 4-1.791 4 0 2.209 0 0" fill="#ff0000"/>
<path transform="matrix(1.27463,0,0,-1.27463,51.30448,32.31313)" stroke-width=".5" stroke-linecap="butt" stroke-miterlimit="10" stroke-linejoin="miter" fill="none" stroke="#000000" d="M0 0C0-2.209-1.791-4-4-4-6.209-4-8-2.209-8 0-8 2.209-6.209 4-4 4-1.791 4 0 2.209 0 0Z"/>
<path transform="matrix(1.27463,0,0,-1.27463,15.614843,32.31313)" d="M0 0C0-2.209-1.791-4-4-4-6.209-4-8-2.209-8 0-8 2.209-6.209 4-4 4-1.791 4 0 2.209 0 0" fill="#f5ebff"/>
<path transform="matrix(1.27463,0,0,-1.27463,15.614843,32.31313)" stroke-width=".5" stroke-linecap="butt" stroke-miterlimit="10" stroke-linejoin="miter" fill="none" stroke="#000000" d="M0 0C0-2.209-1.791-4-4-4-6.209-4-8-2.209-8 0-8 2.209-6.209 4-4 4-1.791 4 0 2.209 0 0Z"/>
<path transform="matrix(1.27463,0,0,-1.27463,115.03597,22.11609)" d="M0 0C0-2.209-1.791-4-4-4-6.209-4-8-2.209-8 0-8 2.209-6.209 4-4 4-1.791 4 0 2.209 0 0" fill="#f5ebff"/>
<path transform="matrix(1.27463,0,0,-1.27463,115.03597,22.11609)" stroke-width=".5" stroke-linecap="butt" stroke-miterlimit="10" stroke-linejoin="miter" fill="none" stroke="#000000" d="M0 0C0-2.209-1.791-4-4-4-6.209-4-8-2.209-8 0-8 2.209-6.209 4-4 4-1.791 4 0 2.209 0 0Z"/>
<path transform="matrix(1.27463,0,0,-1.27463,104.838939,22.11609)" d="M0 0C0-2.209-1.791-4-4-4-6.209-4-8-2.209-8 0-8 2.209-6.209 4-4 4-1.791 4 0 2.209 0 0" fill="#ff0000"/>
<path transform="matrix(1.27463,0,0,-1.27463,104.838939,22.11609)" stroke-width=".5" stroke-linecap="butt" stroke-miterlimit="10" stroke-linejoin="miter" fill="none" stroke="#000000" d="M0 0C0-2.209-1.791-4-4-4-6.209-4-8-2.209-8 0-8 2.209-6.209 4-4 4-1.791 4 0 2.209 0 0Z"/>
<path transform="matrix(1.27463,0,0,-1.27463,115.03597,32.31313)" d="M0 0C0-2.209-1.791-4-4-4-6.209-4-8-2.209-8 0-8 2.209-6.209 4-4 4-1.791 4 0 2.209 0 0" fill="#ff0000"/>
<path transform="matrix(1.27463,0,0,-1.27463,115.03597,32.31313)" stroke-width=".5" stroke-linecap="butt" stroke-miterlimit="10" stroke-linejoin="miter" fill="none" stroke="#000000" d="M0 0C0-2.209-1.791-4-4-4-6.209-4-8-2.209-8 0-8 2.209-6.209 4-4 4-1.791 4 0 2.209 0 0Z"/>
<path transform="matrix(1.27463,0,0,-1.27463,104.838939,32.31313)" d="M0 0C0-2.209-1.791-4-4-4-6.209-4-8-2.209-8 0-8 2.209-6.209 4-4 4-1.791 4 0 2.209 0 0" fill="#f5ebff"/>
<path transform="matrix(1.27463,0,0,-1.27463,104.838939,32.31313)" stroke-width=".5" stroke-linecap="butt" stroke-miterlimit="10" stroke-linejoin="miter" fill="none" stroke="#000000" d="M0 0C0-2.209-1.791-4-4-4-6.209-4-8-2.209-8 0-8 2.209-6.209 4-4 4-1.791 4 0 2.209 0 0Z"/>
<use data-text="+" xlink:href="#font_5_1" transform="matrix(20.39408,0,0,-20.39408,22.283707,33.58776)"/>
<path transform="matrix(1.27463,0,0,-1.27463,62.138837,27.214612)" stroke-width="1" stroke-linecap="butt" stroke-miterlimit="10" stroke-linejoin="miter" fill="none" stroke="#000000" d="M0 0H14.102"/>
<path transform="matrix(1.27463,0,0,-1.27463,87.312778,27.214612)" d="M0 0-7.959-3.252-6.071 0-7.959 3.251Z"/>
<use data-text="2" xlink:href="#font_5_2" transform="matrix(8.917311,0,0,-8.917311,1.9680176,7.462818)"/>
</g>
<use data-text="H" xlink:href="#font_5_4" transform="matrix(15.295559,0,0,-15.295559,6.542537,12.556366)"/>
<use data-text="2" xlink:href="#font_5_2" transform="matrix(8.917311,0,0,-8.917311,37.657659,7.462818)"/>
<use data-text="H" xlink:href="#font_5_4" transform="matrix(15.295559,0,0,-15.295559,42.232175,12.556366)"/>
<use data-text="4" xlink:href="#font_5_3" transform="matrix(8.917311,0,0,-8.917311,92.777889,7.462818)"/>
<use data-text="H" xlink:href="#font_5_4" transform="matrix(15.295559,0,0,-15.295559,97.3524,12.556366)"/>
<use data-text="e" xlink:href="#font_5_5" transform="matrix(15.295559,0,0,-15.295559,107.3251,12.556366)"/>
</g>
</g>
</g>
</g>
</svg>
